<svg width="185" height="105" viewBox="0 0 185 105" fill="none" xmlns="http://www.w3.org/2000/svg">
<path d="M14.7637 88C11.497 88 8.99701 86.7333 7.26367 84.2C5.53034 81.6667 4.33034 77.7667 3.66367 72.5C3.06367 67.2333 2.76367 59.9333 2.76367 50.6C2.76367 42.8 2.96367 36.7 3.36367 32.3C3.83034 27.9 4.86367 24.4333 6.46367 21.9C8.06367 19.3 10.5637 18 13.9637 18C16.897 18 19.097 18.9333 20.5637 20.8C22.0303 22.6667 22.9637 25 23.3637 27.8C23.7637 30.6 23.9637 34.1 23.9637 38.3V42.8C25.297 42.1333 26.4637 41.6667 27.4637 41.4C28.5303 41.1333 30.097 41 32.1637 41C36.697 41 40.597 42.1667 43.8637 44.5C47.1303 46.7667 49.597 49.8333 51.2637 53.7C52.997 57.5667 53.8637 61.8667 53.8637 66.6C53.8637 72.7333 53.197 77.8 51.8637 81.8C50.597 85.7333 48.0637 87.7 44.2637 87.7C41.597 87.7 39.597 87.1 38.2637 85.9C36.997 84.7 36.1637 83.0667 35.7637 81C35.4303 78.9333 35.2637 76.1 35.2637 72.5C35.2637 68.5667 34.8303 65.5333 33.9637 63.4C33.1637 61.2667 31.7303 60.2 29.6637 60.2C27.597 60.2 26.097 61.3 25.1637 63.5C24.297 65.6333 23.8303 68.6333 23.7637 72.5C23.697 76.1 23.4637 78.9667 23.0637 81.1C22.7303 83.2333 21.897 84.9333 20.5637 86.2C19.297 87.4 17.3637 88 14.7637 88ZM70.5184 39.5C67.2517 39.5 64.485 38.3333 62.2184 36C59.9517 33.6 58.8184 30.7 58.8184 27.3C58.8184 23.9667 59.9517 21.1333 62.2184 18.8C64.485 16.4 67.2517 15.2 70.5184 15.2C73.7184 15.2 76.4517 16.4 78.7184 18.8C81.0517 21.1333 82.2184 23.9667 82.2184 27.3C82.2184 30.7 81.0517 33.6 78.7184 36C76.4517 38.3333 73.7184 39.5 70.5184 39.5ZM70.5184 88C67.785 88 65.7517 87.2333 64.4184 85.7C63.1517 84.1 62.285 81.7333 61.8184 78.6C61.4184 75.4 61.2184 70.8667 61.2184 65C61.2184 60.0667 61.4517 56.1667 61.9184 53.3C62.4517 50.4333 63.385 48.3 64.7184 46.9C66.0517 45.5 67.985 44.8 70.5184 44.8C73.2517 44.8 75.2517 45.6 76.5184 47.2C77.8517 48.7333 78.7184 51.1 79.1184 54.3C79.585 57.4333 79.8184 61.9333 79.8184 67.8C79.8184 72.7333 79.5517 76.6333 79.0184 79.5C78.5517 82.3667 77.6517 84.5 76.3184 85.9C74.985 87.3 73.0517 88 70.5184 88Z" fill="#F27405"/>
<path d="M7.26367 84.2L6.43836 84.7647L7.26367 84.2ZM3.66367 72.5L2.67002 72.6132L2.67159 72.6256L3.66367 72.5ZM3.36367 32.3L2.36925 32.1945L2.36846 32.202L2.36778 32.2095L3.36367 32.3ZM6.46367 21.9L7.30922 22.434L7.31533 22.4241L6.46367 21.9ZM23.3637 27.8L22.3737 27.9414L23.3637 27.8ZM23.9637 42.8H22.9637V44.418L24.4109 43.6944L23.9637 42.8ZM27.4637 41.4L27.2211 40.4299L27.2136 40.4318L27.206 40.4338L27.4637 41.4ZM43.8637 44.5L43.2824 45.3138L43.2936 45.3216L43.8637 44.5ZM51.2637 53.7L50.3454 54.0958L50.3482 54.1025L50.3512 54.1091L51.2637 53.7ZM51.8637 81.8L50.9149 81.4838L50.9118 81.4935L51.8637 81.8ZM38.2637 85.9L37.5759 86.626L37.5852 86.6347L37.5947 86.6433L38.2637 85.9ZM35.7637 81L34.7764 81.1592L34.7789 81.1747L34.7819 81.19L35.7637 81ZM33.9637 63.4L33.0273 63.7511L33.0321 63.7638L33.0372 63.7764L33.9637 63.4ZM25.1637 63.5L24.2431 63.1095L24.2401 63.1165L24.2372 63.1236L25.1637 63.5ZM23.7637 72.5L24.7635 72.5185L24.7635 72.5172L23.7637 72.5ZM23.0637 81.1L22.0808 80.9157L22.078 80.9306L22.0757 80.9456L23.0637 81.1ZM20.5637 86.2L21.2514 86.926L21.2524 86.925L20.5637 86.2ZM14.7637 87C11.802 87 9.62217 85.8761 8.08898 83.6353L6.43836 84.7647C8.37184 87.5905 11.192 89 14.7637 89V87ZM8.08898 83.6353C6.48856 81.2962 5.31506 77.5829 4.65576 72.3744L2.67159 72.6256C3.34561 77.9504 4.57212 82.0371 6.43836 84.7647L8.08898 83.6353ZM4.65725 72.3868C4.06357 67.1756 3.76367 59.9193 3.76367 50.6H1.76367C1.76367 59.9474 2.06378 67.291 2.6701 72.6132L4.65725 72.3868ZM3.76367 50.6C3.76367 42.8111 3.96361 36.7461 4.35957 32.3905L2.36778 32.2095C1.96374 36.6539 1.76367 42.7888 1.76367 50.6H3.76367ZM4.35809 32.4055C4.81569 28.091 5.82057 24.7909 7.30916 22.434L5.61818 21.366C3.90677 24.0757 2.84499 27.709 2.36925 32.1945L4.35809 32.4055ZM7.31533 22.4241C8.70993 20.1579 10.8638 19 13.9637 19V17C10.2635 17 7.41742 18.4421 5.61201 21.3759L7.31533 22.4241ZM13.9637 19C16.67 19 18.5447 19.8489 19.7774 21.4178L21.35 20.1822C19.6493 18.0177 17.124 17 13.9637 17V19ZM19.7774 21.4178C21.1164 23.122 21.9938 25.2819 22.3737 27.9414L24.3536 27.6586C23.9335 24.7181 22.9443 22.2113 21.35 20.1822L19.7774 21.4178ZM22.3737 27.9414C22.7647 30.678 22.9637 34.127 22.9637 38.3H24.9637C24.9637 34.073 24.7627 30.522 24.3536 27.6586L22.3737 27.9414ZM22.9637 38.3V42.8H24.9637V38.3H22.9637ZM24.4109 43.6944C25.7077 43.046 26.8084 42.6097 27.7213 42.3662L27.206 40.4338C26.1189 40.7237 24.8864 41.2206 23.5165 41.9056L24.4109 43.6944ZM27.7062 42.3701C28.6521 42.1337 30.1206 42 32.1637 42V40C30.0734 40 28.4086 40.133 27.2211 40.4299L27.7062 42.3701ZM32.1637 42C36.5166 42 40.2069 43.1169 43.2824 45.3137L44.4449 43.6863C40.9872 41.2164 36.8774 40 32.1637 40V42ZM43.2936 45.3216C46.3975 47.4753 48.7481 50.3903 50.3454 54.0958L52.182 53.3042C50.4459 49.2764 47.8632 46.058 44.4338 43.6784L43.2936 45.3216ZM50.3512 54.1091C52.0204 57.8328 52.8637 61.9911 52.8637 66.6H54.8637C54.8637 61.7422 53.9736 57.3006 52.1762 53.2909L50.3512 54.1091ZM52.8637 66.6C52.8637 72.6702 52.2027 77.6207 50.915 81.4838L52.8124 82.1162C54.1913 77.9793 54.8637 72.7965 54.8637 66.6H52.8637ZM50.9118 81.4935C50.3225 83.3235 49.468 84.6063 48.4005 85.4351C47.3401 86.2583 45.9842 86.7 44.2637 86.7V88.7C46.3432 88.7 48.1539 88.1584 49.6269 87.0149C51.0927 85.877 52.1382 84.2098 52.8155 82.1065L50.9118 81.4935ZM44.2637 86.7C41.7267 86.7 40.0106 86.1269 38.9326 85.1567L37.5947 86.6433C39.1834 88.0731 41.4674 88.7 44.2637 88.7V86.7ZM38.9514 85.174C37.8654 84.1452 37.1141 82.7149 36.7455 80.81L34.7819 81.19C35.2132 83.4184 36.1286 85.2548 37.5759 86.626L38.9514 85.174ZM36.7509 80.8408C36.43 78.851 36.2637 76.0788 36.2637 72.5H34.2637C34.2637 76.1212 34.4307 79.0156 34.7764 81.1592L36.7509 80.8408ZM36.2637 72.5C36.2637 68.516 35.828 65.3323 34.8901 63.0236L33.0372 63.7764C33.8326 65.7343 34.2637 68.6173 34.2637 72.5H36.2637ZM34.9 63.0489C34.451 61.8515 33.7937 60.8735 32.8857 60.1978C31.9703 59.5166 30.8771 59.2 29.6637 59.2V61.2C30.5169 61.2 31.1737 61.4168 31.6917 61.8022C32.217 62.1932 32.6764 62.8152 33.0273 63.7511L34.9 63.0489ZM29.6637 59.2C28.4424 59.2 27.3378 59.5289 26.3973 60.2186C25.4663 60.9013 24.7604 61.8901 24.2431 63.1095L26.0843 63.8905C26.5003 62.9099 27.011 62.2487 27.58 61.8314C28.1396 61.4211 28.8182 61.2 29.6637 61.2V59.2ZM24.2372 63.1236C23.3031 65.4229 22.8314 68.565 22.7638 72.4828L24.7635 72.5172C24.8293 68.7016 25.2909 65.8437 26.0901 63.8764L24.2372 63.1236ZM22.7638 72.4815C22.6976 76.057 22.4661 78.8609 22.0808 80.9157L24.0465 81.2843C24.4613 79.0724 24.6964 76.143 24.7635 72.5185L22.7638 72.4815ZM22.0757 80.9456C21.7702 82.9004 21.0216 84.3857 19.8749 85.475L21.2524 86.925C22.7724 85.481 23.6904 83.5663 24.0517 81.2544L22.0757 80.9456ZM19.8759 85.474C18.8685 86.4285 17.2311 87 14.7637 87V89C17.4963 89 19.7255 88.3715 21.2514 86.9259L19.8759 85.474ZM62.2184 36L61.4913 36.6867L61.5011 36.6968L62.2184 36ZM62.2184 18.8L62.9357 19.4969L62.9454 19.4866L62.2184 18.8ZM78.7184 18.8L77.9913 19.4866L78.0012 19.497L78.0113 19.5071L78.7184 18.8ZM78.7184 36L78.0014 35.3029L78.0011 35.3032L78.7184 36ZM64.4184 85.7L63.6343 86.3207L63.6486 86.3388L63.6638 86.3562L64.4184 85.7ZM61.8184 78.6L60.8261 78.724L60.8275 78.7357L60.8293 78.7473L61.8184 78.6ZM61.9184 53.3L60.9352 53.1171L60.9332 53.1282L60.9314 53.1393L61.9184 53.3ZM64.7184 46.9L65.4425 47.5897L64.7184 46.9ZM76.5184 47.2L75.7343 47.8207L75.7486 47.8388L75.7638 47.8562L76.5184 47.2ZM79.1184 54.3L78.1261 54.424L78.1275 54.4357L78.1293 54.4473L79.1184 54.3ZM79.0184 79.5L78.0352 79.3171L78.0332 79.3282L78.0314 79.3393L79.0184 79.5ZM76.3184 85.9L75.5942 85.2103L76.3184 85.9ZM70.5184 38.5C67.5207 38.5 65.0131 37.4418 62.9356 35.3032L61.5011 36.6968C63.9569 39.2249 66.9827 40.5 70.5184 40.5V38.5ZM62.9454 35.3134C60.8598 33.1051 59.8184 30.4531 59.8184 27.3H57.8184C57.8184 30.9469 59.0436 34.0949 61.4913 36.6866L62.9454 35.3134ZM59.8184 27.3C59.8184 24.2197 60.8552 21.6384 62.9356 19.4968L61.5011 18.1032C59.0482 20.6283 57.8184 23.7136 57.8184 27.3H59.8184ZM62.9454 19.4866C65.0254 17.2842 67.5301 16.2 70.5184 16.2V14.2C66.9733 14.2 63.9447 15.5157 61.4913 18.1134L62.9454 19.4866ZM70.5184 16.2C73.4336 16.2 75.9069 17.2795 77.9913 19.4866L79.4454 18.1134C76.9965 15.5205 74.0032 14.2 70.5184 14.2V16.2ZM78.0113 19.5071C80.1549 21.6508 81.2184 24.2289 81.2184 27.3H83.2184C83.2184 23.7045 81.9485 20.6159 79.4255 18.0929L78.0113 19.5071ZM81.2184 27.3C81.2184 30.4442 80.1501 33.0928 78.0014 35.3029L79.4354 36.6971C81.9533 34.1072 83.2184 30.9558 83.2184 27.3H81.2184ZM78.0011 35.3032C75.9192 37.4463 73.4431 38.5 70.5184 38.5V40.5C73.9936 40.5 76.9842 39.2203 79.4356 36.6968L78.0011 35.3032ZM70.5184 87C67.9692 87 66.2568 86.2902 65.173 85.0438L63.6638 86.3562C65.2466 88.1765 67.6008 89 70.5184 89V87ZM65.2024 85.0793C64.0884 83.6721 63.2613 81.5003 62.8074 78.4527L60.8293 78.7473C61.3087 81.9664 62.215 84.5279 63.6343 86.3207L65.2024 85.0793ZM62.8106 78.476C62.4183 75.3376 62.2184 70.8529 62.2184 65H60.2184C60.2184 70.8805 60.4184 75.4624 60.8261 78.724L62.8106 78.476ZM62.2184 65C62.2184 60.0889 62.4513 56.2502 62.9054 53.4607L60.9314 53.1393C60.4521 56.0832 60.2184 60.0445 60.2184 65H62.2184ZM62.9015 53.4829C63.4162 50.7163 64.2945 48.795 65.4425 47.5897L63.9942 46.2103C62.4755 47.805 61.4872 50.1504 60.9352 53.1171L62.9015 53.4829ZM65.4425 47.5897C66.5334 46.4442 68.1697 45.8 70.5184 45.8V43.8C67.8003 43.8 65.5699 44.5558 63.9942 46.2103L65.4425 47.5897ZM70.5184 45.8C73.0573 45.8 74.717 46.5357 75.7343 47.8207L77.3024 46.5793C75.7864 44.6643 73.4461 43.8 70.5184 43.8V45.8ZM75.7638 47.8562C76.9109 49.1753 77.7374 51.3149 78.1261 54.424L80.1106 54.176C79.6993 50.8851 78.7925 48.2913 77.273 46.5438L75.7638 47.8562ZM78.1293 54.4473C78.585 57.507 78.8184 61.9487 78.8184 67.8H80.8184C80.8184 61.918 80.5851 57.3597 80.1075 54.1527L78.1293 54.4473ZM78.8184 67.8C78.8184 72.7078 78.5523 76.5379 78.0352 79.3171L80.0015 79.6829C80.5511 76.7287 80.8184 72.7589 80.8184 67.8H78.8184ZM78.0314 79.3393C77.5818 82.1011 76.735 84.0125 75.5942 85.2103L77.0425 86.5897C78.5684 84.9875 79.5216 82.6322 80.0054 79.6607L78.0314 79.3393ZM75.5942 85.2103C74.5033 86.3558 72.867 87 70.5184 87V89C73.2364 89 75.4668 88.2442 77.0425 86.5897L75.5942 85.2103Z" fill="black"/>
<mask id="path-3-inside-1_1_127" fill="white">
<path fill-rule="evenodd" clip-rule="evenodd" d="M135 105C162.614 105 185 82.6142 185 55C185 27.3858 162.614 5 135 5C107.386 5 85 27.3858 85 55C85 82.6142 107.386 105 135 105ZM131.216 36.2749L135.732 28.2793H136.099C136.139 28.2793 136.485 28.3607 137.136 28.5234C139.333 28.7676 140.941 28.8896 141.958 28.8896C144.318 28.8896 146.719 28.2793 149.16 27.0586C151.602 25.7972 153.962 24.0272 156.24 21.7485C157.583 20.4871 158.702 19.1647 159.597 17.7812C160.533 16.3571 161.001 15.2992 161.001 14.6074C161.001 13.8343 160.452 13.2646 159.353 12.8984C158.254 12.5322 156.179 12.2677 153.127 12.105H152.334C151.683 12.0236 150.91 11.9829 150.015 11.9829C146.108 11.8201 140.31 11.7388 132.62 11.7388C130.219 11.7388 128.551 12.105 127.615 12.8374C126.72 13.5698 125.682 15.3805 124.502 18.2695C124.014 19.3682 123.668 20.1209 123.464 20.5278L123.098 21.3823C121.186 25.9396 119.355 31.0259 117.605 36.6411C116.506 39.9777 115.957 42.175 115.957 43.2329C115.957 44.4943 116.344 45.5319 117.117 46.3457C117.931 47.1188 118.927 47.5054 120.107 47.5054C120.229 47.5054 121.267 47.3426 123.22 47.0171C126.801 46.244 129.649 45.8574 131.765 45.8574C135.549 45.8574 138.296 46.8543 140.005 48.8481C141.755 50.8013 142.629 53.853 142.629 58.0034C142.629 60.9738 141.612 64.5952 139.578 68.8677C137.543 73.1401 135.142 76.7209 132.375 79.6099C129.853 82.1327 127.513 83.394 125.356 83.394C123.688 83.394 122.854 81.2985 122.854 77.1074C122.854 71.6956 123.647 66.9552 125.234 62.8862C126.17 60.4448 127.065 58.512 127.92 57.0879C128.815 55.623 130.138 53.853 131.887 51.7778V51.5947C131.887 50.374 130.789 49.7637 128.591 49.7637C126.516 49.7637 124.075 50.4554 121.267 51.8389C118.5 53.1816 116.079 54.911 114.004 57.0269C109.813 61.1772 107.717 66.9146 107.717 74.2388C107.717 79.7319 109.223 83.984 112.234 86.9951C113.943 88.6634 115.916 89.9655 118.154 90.9014C120.392 91.7965 122.671 92.2441 124.99 92.2441C128.164 92.2441 131.745 91.1048 135.732 88.8262C139.761 86.5475 143.769 83.394 147.756 79.3657C150.483 76.5988 152.761 73.9336 154.592 71.3701C156.464 68.8066 158.051 66.2025 159.353 63.5576C160.696 60.8721 161.693 58.2272 162.344 55.623C163.035 52.9782 163.381 50.4757 163.381 48.1157C163.381 43.355 161.835 39.6725 158.743 37.0684C155.65 34.4235 151.317 33.1011 145.742 33.1011C143.586 33.1011 141.388 33.3656 139.15 33.8945C136.912 34.4235 134.349 35.2983 131.46 36.519L131.216 36.2749Z"/>
</mask>
<path fill-rule="evenodd" clip-rule="evenodd" d="M135 105C162.614 105 185 82.6142 185 55C185 27.3858 162.614 5 135 5C107.386 5 85 27.3858 85 55C85 82.6142 107.386 105 135 105ZM131.216 36.2749L135.732 28.2793H136.099C136.139 28.2793 136.485 28.3607 137.136 28.5234C139.333 28.7676 140.941 28.8896 141.958 28.8896C144.318 28.8896 146.719 28.2793 149.16 27.0586C151.602 25.7972 153.962 24.0272 156.24 21.7485C157.583 20.4871 158.702 19.1647 159.597 17.7812C160.533 16.3571 161.001 15.2992 161.001 14.6074C161.001 13.8343 160.452 13.2646 159.353 12.8984C158.254 12.5322 156.179 12.2677 153.127 12.105H152.334C151.683 12.0236 150.91 11.9829 150.015 11.9829C146.108 11.8201 140.31 11.7388 132.62 11.7388C130.219 11.7388 128.551 12.105 127.615 12.8374C126.72 13.5698 125.682 15.3805 124.502 18.2695C124.014 19.3682 123.668 20.1209 123.464 20.5278L123.098 21.3823C121.186 25.9396 119.355 31.0259 117.605 36.6411C116.506 39.9777 115.957 42.175 115.957 43.2329C115.957 44.4943 116.344 45.5319 117.117 46.3457C117.931 47.1188 118.927 47.5054 120.107 47.5054C120.229 47.5054 121.267 47.3426 123.22 47.0171C126.801 46.244 129.649 45.8574 131.765 45.8574C135.549 45.8574 138.296 46.8543 140.005 48.8481C141.755 50.8013 142.629 53.853 142.629 58.0034C142.629 60.9738 141.612 64.5952 139.578 68.8677C137.543 73.1401 135.142 76.7209 132.375 79.6099C129.853 82.1327 127.513 83.394 125.356 83.394C123.688 83.394 122.854 81.2985 122.854 77.1074C122.854 71.6956 123.647 66.9552 125.234 62.8862C126.17 60.4448 127.065 58.512 127.92 57.0879C128.815 55.623 130.138 53.853 131.887 51.7778V51.5947C131.887 50.374 130.789 49.7637 128.591 49.7637C126.516 49.7637 124.075 50.4554 121.267 51.8389C118.5 53.1816 116.079 54.911 114.004 57.0269C109.813 61.1772 107.717 66.9146 107.717 74.2388C107.717 79.7319 109.223 83.984 112.234 86.9951C113.943 88.6634 115.916 89.9655 118.154 90.9014C120.392 91.7965 122.671 92.2441 124.99 92.2441C128.164 92.2441 131.745 91.1048 135.732 88.8262C139.761 86.5475 143.769 83.394 147.756 79.3657C150.483 76.5988 152.761 73.9336 154.592 71.3701C156.464 68.8066 158.051 66.2025 159.353 63.5576C160.696 60.8721 161.693 58.2272 162.344 55.623C163.035 52.9782 163.381 50.4757 163.381 48.1157C163.381 43.355 161.835 39.6725 158.743 37.0684C155.65 34.4235 151.317 33.1011 145.742 33.1011C143.586 33.1011 141.388 33.3656 139.15 33.8945C136.912 34.4235 134.349 35.2983 131.46 36.519L131.216 36.2749Z" fill="url(#paint0_linear_1_127)"/>
<path d="M135.732 28.2793V27.2793H135.149L134.862 27.7875L135.732 28.2793ZM131.216 36.2749L130.345 35.7831L129.971 36.4447L130.509 36.982L131.216 36.2749ZM137.136 28.5234L136.894 29.4936L136.959 29.5099L137.026 29.5173L137.136 28.5234ZM149.16 27.0586L149.607 27.9531L149.619 27.947L149.16 27.0586ZM156.24 21.7485L155.556 21.0197L155.544 21.0304L155.533 21.0414L156.24 21.7485ZM159.597 17.7812L158.761 17.2321L158.758 17.238L159.597 17.7812ZM153.127 12.105L153.181 11.1064L153.154 11.105H153.127V12.105ZM152.334 12.105L152.21 13.0973L152.272 13.105H152.334V12.105ZM150.015 11.9829L149.973 12.982L149.994 12.9829H150.015V11.9829ZM127.615 12.8374L126.998 12.0499L126.99 12.0566L126.982 12.0634L127.615 12.8374ZM124.502 18.2695L125.416 18.6757L125.422 18.6618L125.428 18.6477L124.502 18.2695ZM123.464 20.5278L122.57 20.0806L122.557 20.1069L122.545 20.1339L123.464 20.5278ZM123.098 21.3823L122.179 20.9884L122.176 20.9954L123.098 21.3823ZM117.605 36.6411L118.555 36.9539L118.557 36.9463L118.56 36.9386L117.605 36.6411ZM117.117 46.3457L116.392 47.0345L116.409 47.053L116.428 47.0707L117.117 46.3457ZM123.22 47.0171L123.385 48.0035L123.408 47.9996L123.431 47.9946L123.22 47.0171ZM140.005 48.8481L139.246 49.4989L139.253 49.5072L139.26 49.5154L140.005 48.8481ZM132.375 79.6099L133.083 80.317L133.09 80.3093L133.098 80.3015L132.375 79.6099ZM125.234 62.8862L126.166 63.2496L126.168 63.2442L125.234 62.8862ZM127.92 57.0879L127.067 56.5664L127.062 56.5734L127.92 57.0879ZM131.887 51.7778L132.652 52.4224L132.887 52.1431V51.7778H131.887ZM121.267 51.8389L121.704 52.7385L121.709 52.7359L121.267 51.8389ZM114.004 57.0269L114.708 57.7374L114.713 57.7323L114.718 57.7271L114.004 57.0269ZM112.234 86.9951L111.527 87.7023L111.535 87.7107L112.234 86.9951ZM118.154 90.9014L117.768 91.8239L117.776 91.827L117.783 91.8298L118.154 90.9014ZM135.732 88.8262L135.24 87.9558L135.236 87.9579L135.732 88.8262ZM147.756 79.3657L148.467 80.0692L148.469 80.0676L147.756 79.3657ZM154.592 71.3701L153.785 70.7804L153.779 70.7889L154.592 71.3701ZM159.353 63.5576L158.459 63.1104L158.456 63.1159L159.353 63.5576ZM162.344 55.623L161.376 55.37L161.374 55.3805L162.344 55.623ZM158.743 37.0684L158.093 37.8283L158.099 37.8333L158.743 37.0684ZM131.46 36.519L130.753 37.2262L131.229 37.7023L131.849 37.4402L131.46 36.519ZM184 55C184 82.062 162.062 104 135 104V106C163.167 106 186 83.1665 186 55H184ZM135 6C162.062 6 184 27.938 184 55H186C186 26.8335 163.167 4 135 4V6ZM86 55C86 27.938 107.938 6 135 6V4C106.833 4 84 26.8335 84 55H86ZM135 104C107.938 104 86 82.062 86 55H84C84 83.1665 106.833 106 135 106V104ZM134.862 27.7875L130.345 35.7831L132.087 36.7667L136.603 28.7711L134.862 27.7875ZM136.099 27.2793H135.732V29.2793H136.099V27.2793ZM137.379 27.5533C137.052 27.4716 136.797 27.4092 136.618 27.3669C136.528 27.3459 136.452 27.3286 136.392 27.316C136.363 27.3099 136.331 27.3033 136.3 27.2979C136.298 27.2976 136.204 27.2793 136.099 27.2793V29.2793C136.035 29.2793 135.987 29.2728 135.982 29.272C135.967 29.2701 135.958 29.2685 135.957 29.2683C135.955 29.268 135.961 29.2691 135.98 29.2731C136.017 29.2809 136.076 29.294 136.16 29.3137C136.326 29.3528 136.569 29.4125 136.894 29.4936L137.379 27.5533ZM141.958 27.8896C141 27.8896 139.439 27.7732 137.247 27.5296L137.026 29.5173C139.228 29.762 140.882 29.8896 141.958 29.8896V27.8896ZM148.713 26.1642C146.389 27.3263 144.14 27.8896 141.958 27.8896V29.8896C144.496 29.8896 147.049 29.2323 149.607 27.953L148.713 26.1642ZM155.533 21.0414C153.315 23.2595 151.037 24.9634 148.701 26.1702L149.619 27.947C152.166 26.631 154.608 24.7949 156.947 22.4556L155.533 21.0414ZM158.758 17.238C157.911 18.5461 156.846 19.8073 155.556 21.0197L156.925 22.4774C158.32 21.167 159.493 19.7833 160.437 18.3245L158.758 17.238ZM160.001 14.6074C160.001 14.7507 159.946 15.0391 159.735 15.5152C159.532 15.9763 159.212 16.5466 158.761 17.2321L160.433 18.3304C160.918 17.5917 161.301 16.921 161.565 16.3242C161.822 15.7423 162.001 15.1558 162.001 14.6074H160.001ZM159.037 13.8471C159.499 14.0011 159.746 14.1672 159.869 14.2945C159.969 14.3978 160.001 14.4865 160.001 14.6074H162.001C162.001 13.9552 161.758 13.3725 161.309 12.9062C160.882 12.4639 160.306 12.162 159.669 11.9498L159.037 13.8471ZM153.074 13.1036C156.136 13.2669 158.083 13.5293 159.037 13.8471L159.669 11.9498C158.426 11.5352 156.222 11.2686 153.181 11.1064L153.074 13.1036ZM152.334 13.105H153.127V11.105H152.334V13.105ZM150.015 12.9829C150.882 12.9829 151.612 13.0225 152.21 13.0973L152.458 11.1127C151.754 11.0247 150.937 10.9829 150.015 10.9829V12.9829ZM132.62 12.7388C140.307 12.7388 146.088 12.8202 149.973 12.982L150.056 10.9838C146.129 10.8201 140.313 10.7388 132.62 10.7388V12.7388ZM128.231 13.6249C128.884 13.1138 130.252 12.7388 132.62 12.7388V10.7388C130.186 10.7388 128.217 11.0962 126.998 12.0499L128.231 13.6249ZM125.428 18.6477C126.008 17.2262 126.544 16.0952 127.033 15.2419C127.532 14.3713 127.942 13.8615 128.248 13.6114L126.982 12.0634C126.392 12.5457 125.836 13.3075 125.298 14.2476C124.749 15.205 124.176 16.4239 123.576 17.8914L125.428 18.6477ZM124.359 20.975C124.574 20.5451 124.928 19.7728 125.416 18.6757L123.588 17.8634C123.099 18.9635 122.762 19.6967 122.57 20.0806L124.359 20.975ZM124.017 21.7762L124.383 20.9218L122.545 20.1339L122.179 20.9884L124.017 21.7762ZM118.56 36.9386C120.302 31.3482 122.122 26.2924 124.02 21.7693L122.176 20.9954C120.249 25.5868 118.408 30.7036 116.65 36.3436L118.56 36.9386ZM116.957 43.2329C116.957 42.8348 117.067 42.1221 117.339 41.034C117.606 39.9682 118.009 38.6101 118.555 36.9539L116.655 36.3284C116.102 38.0087 115.682 39.4176 115.399 40.549C115.122 41.6581 114.957 42.5731 114.957 43.2329H116.957ZM117.842 45.657C117.267 45.0525 116.957 44.2723 116.957 43.2329H114.957C114.957 44.7163 115.42 46.0113 116.392 47.0345L117.842 45.657ZM120.107 46.5054C119.169 46.5054 118.423 46.2075 117.805 45.6207L116.428 47.0707C117.438 48.0301 118.686 48.5054 120.107 48.5054V46.5054ZM123.056 46.0307C122.08 46.1933 121.336 46.3148 120.822 46.3954C120.565 46.4358 120.369 46.4653 120.232 46.4846C120.052 46.5097 120.05 46.5054 120.107 46.5054V48.5054C120.226 48.5054 120.399 48.4807 120.51 48.4651C120.663 48.4437 120.871 48.4122 121.132 48.3712C121.656 48.2891 122.407 48.1664 123.385 48.0035L123.056 46.0307ZM131.765 44.8574C129.545 44.8574 126.617 45.2607 123.009 46.0396L123.431 47.9946C126.985 47.2273 129.753 46.8574 131.765 46.8574V44.8574ZM140.764 48.1974C138.793 45.8979 135.709 44.8574 131.765 44.8574V46.8574C135.39 46.8574 137.799 47.8107 139.246 49.4989L140.764 48.1974ZM143.629 58.0034C143.629 53.7433 142.736 50.3985 140.75 48.1809L139.26 49.5154C140.773 51.204 141.629 53.9627 141.629 58.0034H143.629ZM140.48 69.2976C142.545 64.9618 143.629 61.185 143.629 58.0034H141.629C141.629 60.7626 140.679 64.2286 138.675 68.4377L140.48 69.2976ZM133.098 80.3015C135.95 77.3229 138.408 73.6493 140.48 69.2976L138.675 68.4377C136.678 72.631 134.334 76.1188 131.653 78.9182L133.098 80.3015ZM125.356 84.394C127.907 84.394 130.489 82.9109 133.083 80.317L131.668 78.9028C129.217 81.3544 127.119 82.394 125.356 82.394V84.394ZM121.854 77.1074C121.854 79.2399 122.062 80.9652 122.551 82.1922C122.798 82.8143 123.14 83.3666 123.62 83.7678C124.117 84.1841 124.71 84.394 125.356 84.394V82.394C125.168 82.394 125.032 82.342 124.904 82.2344C124.757 82.1118 124.578 81.8783 124.409 81.4526C124.063 80.5841 123.854 79.166 123.854 77.1074H121.854ZM124.303 62.5229C122.661 66.7317 121.854 71.6 121.854 77.1074H123.854C123.854 71.7913 124.634 67.1787 126.166 63.2496L124.303 62.5229ZM127.062 56.5734C126.166 58.0673 125.247 60.0597 124.301 62.5283L126.168 63.2442C127.094 60.83 127.965 58.9568 128.777 57.6024L127.062 56.5734ZM131.123 51.1332C129.357 53.2277 127.999 55.041 127.067 56.5664L128.773 57.6093C129.631 56.2051 130.918 54.4784 132.652 52.4224L131.123 51.1332ZM130.887 51.5947V51.7778H132.887V51.5947H130.887ZM128.591 50.7637C129.63 50.7637 130.25 50.9136 130.578 51.0956C130.726 51.1782 130.791 51.2544 130.824 51.3081C130.855 51.3604 130.887 51.4443 130.887 51.5947H132.887C132.887 51.1348 132.782 50.6847 132.539 50.2791C132.296 49.8751 131.95 49.5699 131.549 49.3473C130.778 48.9189 129.75 48.7637 128.591 48.7637V50.7637ZM121.709 52.7359C124.443 51.3887 126.727 50.7637 128.591 50.7637V48.7637C126.305 48.7637 123.706 49.5221 120.825 50.9419L121.709 52.7359ZM114.718 57.7271C116.71 55.6961 119.036 54.0331 121.704 52.7385L120.83 50.9392C117.964 52.3302 115.448 54.1258 113.29 56.3266L114.718 57.7271ZM108.717 74.2388C108.717 67.1131 110.75 61.6568 114.708 57.7374L113.3 56.3163C108.876 60.6977 106.717 66.716 106.717 74.2388H108.717ZM112.941 86.288C110.168 83.5145 108.717 79.5471 108.717 74.2388H106.717C106.717 79.9168 108.278 84.4535 111.527 87.7022L112.941 86.288ZM118.54 89.9788C116.417 89.0908 114.55 87.8583 112.932 86.2795L111.535 87.7107C113.336 89.4685 115.416 90.8402 117.768 91.8239L118.54 89.9788ZM124.99 91.2441C122.803 91.2441 120.65 90.8227 118.526 89.9729L117.783 91.8298C120.134 92.7704 122.539 93.2441 124.99 93.2441V91.2441ZM135.236 87.9579C131.336 90.1864 127.929 91.2441 124.99 91.2441V93.2441C128.399 93.2441 132.153 92.0232 136.229 89.6944L135.236 87.9579ZM147.046 78.6622C143.109 82.6392 139.173 85.7313 135.24 87.9558L136.225 89.6966C140.349 87.3638 144.429 84.1489 148.467 80.0692L147.046 78.6622ZM153.779 70.7889C151.984 73.301 149.741 75.9261 147.044 78.6639L148.469 80.0676C151.224 77.2714 153.538 74.5661 155.406 71.9514L153.779 70.7889ZM158.456 63.1159C157.181 65.7052 155.625 68.2601 153.785 70.7804L155.4 71.9598C157.303 69.3532 158.921 66.6998 160.25 63.9993L158.456 63.1159ZM161.374 55.3805C160.742 57.9061 159.773 60.4825 158.459 63.1104L160.247 64.0048C161.619 61.2616 162.643 58.5483 163.314 55.8656L161.374 55.3805ZM162.381 48.1157C162.381 50.3781 162.05 52.795 161.376 55.37L163.311 55.8761C164.021 53.1613 164.381 50.5734 164.381 48.1157H162.381ZM158.099 37.8333C160.924 40.213 162.381 43.5919 162.381 48.1157H164.381C164.381 43.118 162.746 39.1321 159.387 36.3034L158.099 37.8333ZM145.742 34.1011C151.167 34.1011 155.239 35.3874 158.093 37.8283L159.393 36.3084C156.062 33.4596 151.467 32.1011 145.742 32.1011V34.1011ZM139.38 34.8677C141.548 34.3554 143.668 34.1011 145.742 34.1011V32.1011C143.503 32.1011 141.229 32.3757 138.92 32.9213L139.38 34.8677ZM131.849 37.4402C134.704 36.234 137.212 35.3801 139.38 34.8677L138.92 32.9213C136.612 33.4669 133.994 34.3627 131.071 35.5979L131.849 37.4402ZM130.509 36.982L130.753 37.2262L132.167 35.8119L131.923 35.5678L130.509 36.982Z" fill="black" mask="url(#path-3-inside-1_1_127)"/>
<path d="M66.2 27.6V25.642C66.2 23.211 67.9215 22.2155 70.028 23.431L71.7275 24.41L73.427 25.389C75.5335 26.6045 75.5335 28.5955 73.427 29.811L71.7275 30.79L70.028 31.769C67.9215 32.9845 66.2 31.989 66.2 29.558V27.6Z" fill="#0D0D0D" stroke="black" stroke-miterlimit="10" stroke-linecap="round" stroke-linejoin="round"/>
<defs>
<linearGradient id="paint0_linear_1_127" x1="135" y1="5" x2="135" y2="105" gradientUnits="userSpaceOnUse">
<stop stop-color="#F29F05"/>
<stop offset="0.451042" stop-color="#F27405"/>
<stop offset="0.961458" stop-color="#F24405"/>
</linearGradient>
</defs>
</svg>
