<svg width="20" height="20" viewBox="0 0 20 20" fill="none" xmlns="http://www.w3.org/2000/svg">
<path d="M6.66675 1.66666V4.16666" stroke="#F27405" stroke-width="1.25" stroke-miterlimit="10" stroke-linecap="round" stroke-linejoin="round"/>
<path d="M13.3333 1.66666V4.16666" stroke="#F27405" stroke-width="1.25" stroke-miterlimit="10" stroke-linecap="round" stroke-linejoin="round"/>
<path d="M2.91675 7.57501H17.0834" stroke="#F27405" stroke-width="1.25" stroke-miterlimit="10" stroke-linecap="round" stroke-linejoin="round"/>
<path d="M18.3334 15.8333C18.3334 16.4583 18.1584 17.05 17.8501 17.55C17.2751 18.5167 16.2167 19.1667 15.0001 19.1667C14.1584 19.1667 13.3918 18.8583 12.8084 18.3333C12.5501 18.1167 12.3251 17.85 12.1501 17.55C11.8417 17.05 11.6667 16.4583 11.6667 15.8333C11.6667 13.9917 13.1584 12.5 15.0001 12.5C16.0001 12.5 16.8917 12.9417 17.5001 13.6333C18.0167 14.225 18.3334 14.9917 18.3334 15.8333Z" stroke="#F27405" stroke-width="1.25" stroke-miterlimit="10" stroke-linecap="round" stroke-linejoin="round"/>
<path d="M13.7 15.8334L14.5249 16.6584L16.2999 15.0167" stroke="#F27405" stroke-width="1.25" stroke-linecap="round" stroke-linejoin="round"/>
<path d="M17.5 7.08332V13.6333C16.8917 12.9416 16 12.5 15 12.5C13.1583 12.5 11.6667 13.9917 11.6667 15.8333C11.6667 16.4583 11.8417 17.05 12.15 17.55C12.325 17.85 12.55 18.1167 12.8083 18.3333H6.66667C3.75 18.3333 2.5 16.6667 2.5 14.1667V7.08332C2.5 4.58332 3.75 2.91666 6.66667 2.91666H13.3333C16.25 2.91666 17.5 4.58332 17.5 7.08332Z" stroke="#F27405" stroke-width="1.25" stroke-miterlimit="10" stroke-linecap="round" stroke-linejoin="round"/>
<path d="M9.99632 11.4167H10.0038" stroke="#F27405" stroke-width="1.66667" stroke-linecap="round" stroke-linejoin="round"/>
<path d="M6.91185 11.4167H6.91933" stroke="#F27405" stroke-width="1.66667" stroke-linecap="round" stroke-linejoin="round"/>
<path d="M6.91185 13.9167H6.91933" stroke="#F27405" stroke-width="1.66667" stroke-linecap="round" stroke-linejoin="round"/>
</svg>
