<svg width="21" height="21" viewBox="0 0 21 21" fill="none" xmlns="http://www.w3.org/2000/svg">
<path d="M10.64 9.51125C10.5525 9.5025 10.4475 9.5025 10.3512 9.51125C8.26874 9.44125 6.61499 7.735 6.61499 5.635C6.61499 3.49125 8.34749 1.75 10.5 1.75C12.6437 1.75 14.385 3.49125 14.385 5.635C14.3762 7.735 12.7225 9.44125 10.64 9.51125Z" stroke="#F27405" stroke-width="1.3125" stroke-linecap="round" stroke-linejoin="round"/>
<path d="M6.26488 12.74C4.14738 14.1575 4.14738 16.4675 6.26488 17.8762C8.67113 19.4862 12.6174 19.4862 15.0236 17.8762C17.1411 16.4587 17.1411 14.1488 15.0236 12.74C12.6261 11.1388 8.67988 11.1388 6.26488 12.74Z" stroke="#F27405" stroke-width="1.3125" stroke-linecap="round" stroke-linejoin="round"/>
</svg>
