<svg width="39" height="39" viewBox="0 0 39 39" fill="none" xmlns="http://www.w3.org/2000/svg">
<path d="M19.5 35.75C28.4746 35.75 35.75 28.4746 35.75 19.5C35.75 10.5254 28.4746 3.25 19.5 3.25C10.5254 3.25 3.25 10.5254 3.25 19.5C3.25 28.4746 10.5254 35.75 19.5 35.75Z" fill="white" fill-opacity="0.89" stroke="url(#paint0_linear_4_861)" stroke-width="2.4375" stroke-linecap="round" stroke-linejoin="round"/>
<path d="M14.7875 19.5V17.095C14.7875 13.9913 16.9812 12.74 19.6625 14.2838L21.7425 15.4863L23.8225 16.6888C26.5037 18.2325 26.5037 20.7675 23.8225 22.3113L21.7425 23.5138L19.6625 24.7163C16.9812 26.26 14.7875 24.9925 14.7875 21.905V19.5Z" fill="url(#paint1_linear_4_861)"/>
<defs>
<linearGradient id="paint0_linear_4_861" x1="19.5" y1="3.25" x2="19.5" y2="35.75" gradientUnits="userSpaceOnUse">
<stop stop-color="#F27405"/>
<stop offset="1" stop-color="#F24405"/>
</linearGradient>
<linearGradient id="paint1_linear_4_861" x1="20.3104" y1="13.6229" x2="20.3104" y2="25.3743" gradientUnits="userSpaceOnUse">
<stop stop-color="#F27405"/>
<stop offset="1" stop-color="#F24405"/>
</linearGradient>
</defs>
</svg>
